<?xml version="1.0" encoding="UTF-8"?>
<svg xmlns="http://www.w3.org/2000/svg" viewBox="490 565 1830 405" role="img" aria-label="Rescope Surveys">
<path d="M0 0 C0.66660645 0.20995605 1.33321289 0.41991211 2.02001953 0.63623047 C12.88202435 4.09929614 22.97994126 8.57820589 33 14 C34.07121094 14.5775 35.14242188 15.155 36.24609375 15.75 C42.7329582 19.39411631 48.62599226 23.54674835 54.50390625 28.08203125 C56.28793914 29.4528609 58.12798904 30.75199269 60 32 C58.56741228 35.27196452 56.81174684 37.43203956 54.28466797 39.94238281 C53.1437117 41.08311249 53.1437117 41.08311249 51.97970581 42.24688721 C51.15882477 43.05744568 50.33794373 43.86800415 49.4921875 44.703125 C48.65156769 45.54091492 47.81094788 46.37870483 46.94485474 47.24188232 C44.25955999 49.91598431 41.56739345 52.58304724 38.875 55.25 C37.05292845 57.06204062 35.23130823 58.87453518 33.41015625 60.6875 C28.94532748 65.13028036 24.47483717 69.56730165 20 74 C16.91127994 72.50422049 14.08901092 70.78100296 11.23071289 68.87792969 C-12.53865607 53.09856372 -41.10496927 46.81311152 -69.37744141 52.07836914 C-97.38934338 58.28480507 -121.41585462 74.95517244 -137.22802734 98.82299805 C-149.86604903 118.66242583 -154.21640488 139.51391011 -154.70019531 162.80810547 C-155.32280956 191.43653902 -163.66522178 220.87504844 -181 244 C-181.57363281 244.78246094 -182.14726563 245.56492187 -182.73828125 246.37109375 C-200.43175646 269.84037007 -222.99422931 286.35696581 -251 295 C-251.99773437 295.31710937 -252.99546875 295.63421875 -254.0234375 295.9609375 C-266.2583478 299.58476724 -278.3433474 300.23880477 -291 300 C-291 307.26 -291 314.52 -291 322 C-310.8 322 -330.6 322 -351 322 C-351 234.22 -351 146.44 -351 56 C-331.2 56 -311.4 56 -291 56 C-290.505 75.8 -290.505 75.8 -290 96 C-287.69 92.37 -285.38 88.74 -283 85 C-271.06000342 69.47800444 -254.46431143 59.0179978 -236 53 C-235.07960938 52.6803125 -234.15921875 52.360625 -233.2109375 52.03125 C-221.53468999 48.63223455 -209.03131691 49.73730749 -197 50 C-199.45726873 54.49451979 -201.94721883 58.95744293 -204.61328125 63.33203125 C-213.08083349 77.31063151 -220.13125013 91.89962809 -223.52734375 107.98046875 C-224 110 -224 110 -225 111 C-226.58093717 111.1357675 -228.16526952 111.23234745 -229.75 111.3125 C-247.75859579 112.83073441 -263.44131602 121.73588989 -275.0546875 135.39453125 C-288.02842202 152.77099897 -291.23852253 171.43212944 -291.4140625 192.70703125 C-291.43282808 194.1681979 -291.45240523 195.62935433 -291.4727478 197.09049988 C-291.52350704 200.88951516 -291.56342874 204.68856538 -291.60089111 208.48773193 C-291.64128867 212.38318109 -291.69221553 216.27849211 -291.7421875 220.17382812 C-291.83827872 227.78245643 -291.92289126 235.39115308 -292 243 C-288.64692906 242.55895188 -285.29603982 242.10301812 -281.9453125 241.64453125 C-281.00341064 241.52082153 -280.06150879 241.39711182 -279.09106445 241.26965332 C-271.45912304 240.21381829 -264.97180978 238.36140829 -258 235 C-257.0615625 234.55785156 -256.123125 234.11570312 -255.15625 233.66015625 C-236.17537046 224.03642378 -224.21327016 207.65779957 -216.91015625 188.078125 C-216.17513911 185.7231447 -215.54783655 183.40522758 -215 181 C-214.83516113 180.38350586 -214.67032227 179.76701172 -214.50048828 179.13183594 C-212.89995058 172.77251845 -212.72237206 166.65836688 -212.625 160.125 C-211.59896954 123.25401363 -202.08914796 87.3821595 -179 58 C-178.35933594 57.15566406 -177.71867188 56.31132813 -177.05859375 55.44140625 C-150.19421827 21.13452827 -112.6928893 1.13698046 -70.125 -6.375 C-46.89408164 -9.08667158 -22.29133126 -7.14000296 0 0 Z " fill="#1791E0" transform="translate(851,578)"/>
<path d="M0 0 C2.23919313 2.42550371 4.08156199 5.19225498 6 7.875 C6.87241333 9.09425171 6.87241333 9.09425171 7.76245117 10.33813477 C33.98131009 47.6370051 44.13763184 91.37037182 37.03515625 136.47265625 C32.38159419 162.76274024 21.38739266 187.92411625 5 209 C6.57470419 212.82555254 9.00978509 215.24457564 11.9375 218.125 C12.81277344 218.99382812 13.68804688 219.86265625 14.58984375 220.7578125 C16.98347586 223.10497893 16.98347586 223.10497893 20 225 C23.40353913 224.68006732 25.2624187 223.18589079 27.75 220.9375 C28.67039062 220.11572266 28.67039062 220.11572266 29.609375 219.27734375 C30.06828125 218.85582031 30.5271875 218.43429687 31 218 C40.21133166 227.16499261 49.41725596 236.33537868 58.61631489 245.51269054 C62.88796638 249.77390459 67.1614585 254.03323803 71.43920898 258.28833008 C75.56734206 262.39473367 79.69057144 266.50600251 83.81044579 270.6206913 C85.38316354 272.18971351 86.95764066 273.75697425 88.53389931 275.32243919 C90.74123081 277.51525469 92.9422257 279.71424785 95.1418457 281.91479492 C95.79496231 282.56072098 96.44807892 283.20664703 97.12098694 283.87214661 C100.27965294 287.0452495 102.90947703 289.98589696 105 294 C97.07286313 302.83175696 88.85390585 311.33241909 80.46264648 319.72265625 C78.40385911 321.78367739 76.3532655 323.85264307 74.30273438 325.921875 C72.99267459 327.23486119 71.68214589 328.54737971 70.37109375 329.859375 C69.75971054 330.47794373 69.14832733 331.09651245 68.51841736 331.73382568 C64.22888361 336 64.22888361 336 62 336 C62 336.66 62 337.32 62 338 C58.74031795 337.4172272 57.11009385 336.48304889 54.7855835 334.14634705 C53.86860687 333.23555641 53.86860687 333.23555641 52.93310547 332.30636597 C52.2742334 331.63670807 51.61536133 330.96705017 50.93652344 330.27709961 C50.23368225 329.5746965 49.53084106 328.8722934 48.80670166 328.14860535 C46.48374537 325.8235579 44.17159734 323.4880622 41.859375 321.15234375 C40.25148867 319.53886266 38.64293902 317.92604234 37.03375244 316.31385803 C32.79880186 312.06744937 28.57293718 307.81210877 24.34887695 303.55487061 C20.03749611 299.21280991 15.71761747 294.87922215 11.3984375 290.54492188 C2.92393437 282.03823755 -5.54099805 273.5220968 -14 265 C-12.6856797 262.08751557 -11.73636312 260.75475639 -9.3125 258.5 C-8.1678125 257.2625 -8.1678125 257.2625 -7 256 C-7.44848321 251.14800636 -11.03683661 248.44893684 -14.3125 245.1875 C-14.89451172 244.57712891 -15.47652344 243.96675781 -16.07617188 243.33789062 C-16.64529297 242.76619141 -17.21441406 242.19449219 -17.80078125 241.60546875 C-18.31809814 241.08106201 -18.83541504 240.55665527 -19.3684082 240.01635742 C-20.95992588 238.79559701 -20.95992588 238.79559701 -22.96191406 239.18896484 C-25.12729996 240.0506577 -26.8783428 241.06542846 -28.80859375 242.37109375 C-29.54464844 242.85819824 -30.28070312 243.34530273 -31.0390625 243.84716797 C-31.83054687 244.37197754 -32.62203125 244.89678711 -33.4375 245.4375 C-52.9992216 258.04906588 -74.10943378 266.6576941 -97 271 C-98.02609375 271.20496094 -99.0521875 271.40992188 -100.109375 271.62109375 C-140.5301054 278.3734047 -181.27331754 268.78829896 -215 246 C-220.97957619 241.70893115 -226.90119736 237.33112219 -232 232 C-230.58098338 228.77254476 -228.87144235 226.62741893 -226.37646484 224.14941406 C-225.63584808 223.40894836 -224.89523132 222.66848267 -224.13217163 221.90557861 C-223.33316437 221.11689392 -222.5341571 220.32820923 -221.7109375 219.515625 C-220.48330185 218.29223419 -220.48330185 218.29223419 -219.23086548 217.04412842 C-216.61690027 214.44135438 -213.99606495 211.84562238 -211.375 209.25 C-209.60110546 207.4861366 -207.82766234 205.7218191 -206.0546875 203.95703125 C-201.70834858 199.63273864 -197.35634919 195.3142067 -193 191 C-192.1928228 191.60951256 -192.1928228 191.60951256 -191.36933899 192.2313385 C-190.65746933 192.76738205 -189.94559967 193.3034256 -189.2121582 193.85571289 C-188.157481 194.65085045 -188.157481 194.65085045 -187.08149719 195.46205139 C-178.7626924 201.60853782 -169.94309078 206.33621739 -160.25 209.9375 C-159.49485107 210.21972412 -158.73970215 210.50194824 -157.96166992 210.79272461 C-134.19648318 219.18028647 -105.6633777 217.31514056 -82.8293457 206.90869141 C-56.24764493 194.14974016 -35.92521291 174.28668984 -25.1640625 146.46875 C-15.9950506 119.14632529 -15.84385274 90.43836967 -28 64 C-32.91095577 54.15643938 -32.91095577 54.15643938 -39.3359375 45.29296875 C-41 43 -41 43 -40.76480103 41.03778076 C-39.46398204 37.57180227 -36.634576 35.29369836 -34.0234375 32.765625 C-33.4199649 32.16876892 -32.81649231 31.57191284 -32.19473267 30.95697021 C-30.26178974 29.04741783 -28.31901799 27.14827073 -26.375 25.25 C-23.83737222 22.75902213 -21.30405632 20.26372214 -18.7734375 17.765625 C-18.16788025 17.16874878 -17.562323 16.57187256 -16.93841553 15.95690918 C-13.23345622 12.28490279 -9.67115236 8.54338147 -6.31884766 4.54199219 C-2.43413553 0 -2.43413553 0 0 0 Z " fill="#07637A" transform="translate(928,627)"/>
<path d="M0 0 C0.74121094 0.64582031 1.48242188 1.29164063 2.24609375 1.95703125 C3.21675781 2.72917969 4.18742187 3.50132812 5.1875 4.296875 C18.05478399 15.02741248 27.01943275 32.0128942 31.24609375 47.95703125 C31.42124512 48.58182373 31.59639648 49.20661621 31.77685547 49.8503418 C35.83441312 65.7276626 34.71667111 84.5643283 29.24609375 99.95703125 C28.87226562 101.01535156 28.4984375 102.07367187 28.11328125 103.1640625 C23.07685771 116.15536693 15.853453 126.1055388 6.24609375 135.95703125 C5.66214844 136.61445312 5.07820313 137.271875 4.4765625 137.94921875 C-8.82775464 152.5671267 -31.02440889 161.04457013 -50.36352539 162.09936523 C-79.85847546 163.07188939 -102.94747675 156.66632322 -125.50390625 137.14453125 C-142.01042341 121.54838804 -153.09904751 98.61827592 -154.08984375 75.765625 C-154.5564385 47.81634153 -145.30613736 25.34685046 -126.06640625 4.89453125 C-92.42271062 -27.63426609 -35.82879453 -30.33632335 0 0 Z " fill="#1890DF" transform="translate(1946.75390625,649.04296875)"/>
<path d="M0 0 C14.89125 -0.061875 29.7825 -0.12375 45.125 -0.1875 C49.80059082 -0.21481201 54.47618164 -0.24212402 59.29345703 -0.27026367 C65.07006836 -0.28381348 65.07006836 -0.28381348 67.787323 -0.28633118 C69.65672966 -0.29089224 71.52612834 -0.30134683 73.39547729 -0.31672668 C96.33419094 -0.4957684 115.42036643 3.20336704 132.8125 19.375 C143.27485953 30.4130396 147.17643497 43.9964188 147.1875 58.8125 C147.19974609 59.66392578 147.21199219 60.51535156 147.22460938 61.39257812 C147.26141791 77.50244775 141.08178562 90.26810825 130.19921875 101.9296875 C124.39612291 107.52153574 117.23330211 110.65764552 110 114 C116.21623354 123.98953307 122.83407356 133.70201359 129.4375 143.4375 C133.158918 148.92972051 136.87811286 154.42343532 140.59295654 159.92010498 C141.49719806 161.25675697 142.40257991 162.59263862 143.30938721 163.92755127 C144.45027802 165.60712804 145.58664291 167.28977667 146.72265625 168.97265625 C147.34019775 169.884104 147.95773926 170.79555176 148.59399414 171.73461914 C150 174 150 174 151 177 C144.89895037 177.29819028 138.80219229 177.51505329 132.69555664 177.65917969 C130.62221369 177.71928127 128.54937429 177.80099707 126.4777832 177.90527344 C109.36756845 178.74453379 109.36756845 178.74453379 103.85400391 174.68188477 C101.49661738 171.57345681 99.75189193 168.48155366 98 165 C96.71660148 163.06596177 95.40959936 161.14735429 94.078125 159.24609375 C92.79883765 157.31203879 91.52285624 155.3757935 90.25 153.4375 C88.86814826 151.34832254 87.48532108 149.25978997 86.1015625 147.171875 C85.41868164 146.14126953 84.73580078 145.11066406 84.03222656 144.04882812 C79.48024546 137.21976278 74.82250267 130.46225742 70.16650391 123.70385742 C69.09874231 122.14422825 68.04845057 120.57267586 67 119 C53.14 118.505 53.14 118.505 39 118 C39 137.47 39 156.94 39 177 C26.13 177 13.26 177 0 177 C0 118.59 0 60.18 0 0 Z " fill="#076278" transform="translate(1046,631)"/>
<path d="M0 0 C15.18 -0.0825 30.36 -0.165 46 -0.25 C50.76179688 -0.28641602 55.52359375 -0.32283203 60.4296875 -0.36035156 C66.32421875 -0.37841797 66.32421875 -0.37841797 69.09912109 -0.3817749 C71.00345621 -0.38784633 72.90777768 -0.40176406 74.81201172 -0.42230225 C96.19819514 -0.6410766 114.72365834 2.31630753 130.7890625 17.7578125 C131.88347656 18.86769531 131.88347656 18.86769531 133 20 C133.64710938 20.63679687 134.29421875 21.27359375 134.9609375 21.9296875 C146.90374601 34.49832004 148.66500928 49.18039 148.375 65.7265625 C147.75312478 80.6027062 141.0675478 93.98988338 130.2109375 104.16015625 C115.98572104 115.99774804 100.81296605 119.17457343 82.84765625 119.09765625 C81.73418823 119.09664917 80.62072021 119.09564209 79.47351074 119.09460449 C75.3364966 119.08939468 71.1994972 119.07543348 67.0625 119.0625 C57.801875 119.041875 48.54125 119.02125 39 119 C39 138.14 39 157.28 39 177 C26.13 177 13.26 177 0 177 C0 118.59 0 60.18 0 0 Z " fill="#1690E0" transform="translate(2007,631)"/>
<path d="M0 0 C45.54 0 91.08 0 138 0 C138 11.22 138 22.44 138 34 C105.66 34 73.32 34 40 34 C40 45.88 40 57.76 40 70 C69.04 70 98.08 70 128 70 C128 81.22 128 92.44 128 104 C98.96 104 69.92 104 40 104 C40 116.87 40 129.74 40 143 C72.34 143 104.68 143 138 143 C138 154.22 138 165.44 138 177 C92.46 177 46.92 177 0 177 C0 118.59 0 60.18 0 0 Z " fill="#1790E0" transform="translate(2179,631)"/>
<path d="M0 0 C45.21 0 90.42 0 137 0 C137 11.55 137 23.1 137 35 C104.66 35 72.32 35 39 35 C39 46.55 39 58.1 39 70 C68.04 70 97.08 70 127 70 C127 81.22 127 92.44 127 104 C97.96 104 68.92 104 39 104 C39 116.87 39 129.74 39 143 C71.34 143 103.68 143 137 143 C137 154.22 137 165.44 137 177 C91.79 177 46.58 177 0 177 C0 118.59 0 60.18 0 0 Z " fill="#086379" transform="translate(1222,631)"/>
<path d="M0 0 C1.21608612 0.99055742 2.42789878 1.98658098 3.625 3 C2.31840512 5.77022508 0.86577915 8.17095325 -0.984375 10.609375 C-1.49226563 11.28226563 -2.00015625 11.95515625 -2.5234375 12.6484375 C-3.05195312 13.34195313 -3.58046875 14.03546875 -4.125 14.75 C-4.63804687 15.42804687 -5.15109375 16.10609375 -5.6796875 16.8046875 C-6.71434286 18.17209634 -7.75014687 19.53863682 -8.78710938 20.90429688 C-11.32947796 24.25972307 -13.85236606 27.62972499 -16.375 31 C-16.99503906 30.57589844 -17.61507813 30.15179687 -18.25390625 29.71484375 C-35.76229857 18.11903807 -55.09758526 9.96155509 -76.4296875 13.5078125 C-82.17965807 15.02832144 -88.22573113 17.63185046 -91.5390625 22.82421875 C-93.57559556 28.12491462 -93.09683501 34.08713724 -91.125 39.3125 C-81.29499832 48.91909255 -65.84444337 51.270188 -52.8203125 53.953125 C-34.56324168 57.71769622 -12.05859095 63.2798036 -0.375 79 C7.67750637 92.38798195 9.6739729 105.44379283 6.94140625 120.85546875 C2.90960954 134.85801582 -5.08694643 145.57831098 -17.83984375 152.6953125 C-42.4254412 165.34799285 -73.36130474 165.46006294 -99.41357422 157.36669922 C-114.21934182 152.43636753 -127.78535667 144.3864812 -139.375 134 C-138.87395039 129.5688425 -137.43923223 127.55626888 -134.375 124.375 C-130.11192989 119.83952924 -126.18581621 115.1269079 -122.3203125 110.25 C-120.375 108 -120.375 108 -117.375 106 C-116.95992187 106.4125 -116.54484375 106.825 -116.1171875 107.25 C-101.72145065 120.74223872 -82.64312787 128.3515361 -63.0625 128.375 C-61.99837891 128.39949219 -60.93425781 128.42398438 -59.83789062 128.44921875 C-51.12125914 128.48112832 -43.72656413 126.75303037 -36.3125 122.0625 C-32.41596853 117.91457941 -31.90543317 113.73048865 -32.0703125 108.20703125 C-32.57150939 104.57656658 -33.92843079 102.69122613 -36.375 100 C-41.6960717 95.99811876 -47.19767452 93.77759255 -53.5625 92 C-54.42399658 91.74927734 -55.28549316 91.49855469 -56.1730957 91.24023438 C-62.4248785 89.45514053 -68.72589369 87.94908473 -75.0625 86.5 C-94.71541139 81.98119201 -114.43020012 75.67353604 -126.8125 58.625 C-133.67008265 47.26045085 -134.30707754 32.45298957 -131.68359375 19.6171875 C-130.76714532 16.92535991 -129.70332039 14.51225813 -128.375 12 C-127.93929688 11.14277344 -127.50359375 10.28554688 -127.0546875 9.40234375 C-119.79358682 -3.75096158 -107.51150758 -12.59110746 -93.28125 -17.19140625 C-61.32454957 -26.082585 -26.47117377 -20.3782753 0 0 Z " fill="#1890DF" transform="translate(1589.375,649)"/>
<path d="M0 0 C23.37386474 -0.61722031 45.90121739 6.17821269 63.46484375 21.97265625 C64.22925781 22.70097656 64.99367188 23.42929687 65.78125 24.1796875 C67.73496899 26.00387816 69.73403004 27.60152712 71.90234375 29.16015625 C70.3483186 33.12338014 67.59473589 35.48842972 64.46484375 38.22265625 C61.13779078 41.17485855 57.87278116 44.13586012 54.8046875 47.359375 C54.31605225 47.87040771 53.82741699 48.38144043 53.32397461 48.90795898 C51.96602417 50.34286694 50.62133518 51.79029048 49.27734375 53.23828125 C46.90234375 55.16015625 46.90234375 55.16015625 44.77734375 55.15234375 C42.64477096 54.02385731 41.47507279 52.8618155 39.90234375 51.03515625 C30.82521052 41.62970118 17.83754749 36.21767269 4.84912109 35.74072266 C-10.25462897 35.60901425 -22.81386617 40.36375847 -33.77734375 50.77734375 C-44.72015592 62.0149118 -50.48328305 74.72864535 -50.34765625 90.47265625 C-50.35539062 91.35888672 -50.363125 92.24511719 -50.37109375 93.15820312 C-50.34426321 102.35437122 -49.04255254 110.57565331 -44.53515625 118.66015625 C-44.18364502 119.29888672 -43.83213379 119.93761719 -43.4699707 120.59570312 C-36.2875952 133.18268548 -25.65998789 142.28911314 -11.66015625 146.5 C3.95829592 149.39420879 19.20679625 147.40708827 32.67578125 138.7421875 C37.05900838 135.62778927 40.90600138 132.65466981 43.90234375 128.16015625 C47.98613716 129.51188472 50.27917894 131.22951867 53.21484375 134.34765625 C59.07176529 140.40888901 65.40685356 145.80137684 71.90234375 151.16015625 C66.02364518 164.27863139 49.77583763 172.57536939 36.9609375 177.65234375 C35.61021052 178.16066467 34.25739964 178.6634903 32.90234375 179.16015625 C31.71769531 179.59585938 30.53304688 180.0315625 29.3125 180.48046875 C5.02576626 187.89349527 -21.92283609 183.82419531 -44.09765625 172.16015625 C-66.25062998 159.57748043 -81.56414261 139.45565829 -88.63964844 115.14575195 C-94.86893772 92.25783298 -91.47766838 67.71213774 -80.19189453 47.05419922 C-67.46096878 25.01793817 -46.6319543 10.1761506 -22.484375 3.1015625 C-15.00418221 1.26447637 -7.67206491 0.39666414 0 0 Z " fill="#1890DF" transform="translate(1708.09765625,627.83984375)"/>
<path d="M0 0 C0.74765625 0.52980469 1.4953125 1.05960938 2.265625 1.60546875 C2.95140625 2.08371094 3.6371875 2.56195312 4.34375 3.0546875 C13.81836208 10.45905954 20.02103244 22.21076869 23.265625 33.60546875 C23.43924561 34.21438965 23.61286621 34.82331055 23.79174805 35.45068359 C26.30923381 46.89804544 25.34852256 61.10714761 20.265625 71.60546875 C19.84152344 72.53230469 19.41742187 73.45914063 18.98046875 74.4140625 C12.16094889 88.11008986 0.73561627 98.55909583 -13.71484375 103.71875 C-26.56826027 107.06030313 -42.16649029 106.28985655 -53.734375 99.60546875 C-67.97377636 90.90676407 -76.89997788 78.8391582 -81.671875 62.91796875 C-85.13517339 46.58165561 -83.05102495 31.20165883 -74.546875 16.79296875 C-57.3405126 -8.23446747 -26.18717654 -17.10613951 0 0 Z " fill="#F7FAFA" transform="translate(1915.734375,671.39453125)"/>
<path d="M0 0 C58.11832061 0 58.11832061 0 68.3046875 9.046875 C74.39755282 15.51914952 77.06035793 20.94394713 77.4375 29.8125 C77.16082275 38.95437757 74.3444581 46.61791223 68.00390625 53.2734375 C63.95805832 56.75933377 59.45000529 60 54 60 C58.41868629 68.68500409 64.17791044 76.22827378 70 84 C71.56909351 86.09948292 73.1304008 88.2040436 74.6875 90.3125 C75.33074219 91.17488281 75.97398438 92.03726563 76.63671875 92.92578125 C78 95 78 95 78 97 C71.87662676 98.61141401 65.95042437 99.69147881 60 97 C53.53682779 90.80063074 49.13800928 82.62162696 44.71630859 74.91357422 C43.25598528 72.43455595 41.72839533 70.12663715 40.01953125 67.81640625 C38 65 38 65 38 63 C30.74 63 23.48 63 16 63 C16 74.22 16 85.44 16 97 C10.72 97 5.44 97 0 97 C0 64.99 0 32.98 0 0 Z " fill="#4A4A4A" transform="translate(1854,861)"/>
<path d="M0 0 C23.43 0 46.86 0 71 0 C71 4.62 71 9.24 71 14 C52.52 14 34.04 14 15 14 C15 22.91 15 31.82 15 41 C31.83 41 48.66 41 66 41 C66 45.29 66 49.58 66 54 C49.17 54 32.34 54 15 54 C15 63.57 15 73.14 15 83 C33.81 83 52.62 83 72 83 C72 87.62 72 92.24 72 97 C48.24 97 24.48 97 0 97 C0 64.99 0 32.98 0 0 Z " fill="#484848" transform="translate(2057,861)"/>
<path d="M0 0 C4.95 0 9.9 0 15 0 C15.01401855 2.7841333 15.01401855 2.7841333 15.02832031 5.62451172 C15.06399571 11.79135288 15.11788664 17.95783008 15.18390274 24.12441826 C15.22323207 27.85932926 15.25549097 31.59400965 15.27099609 35.32910156 C15.28625975 38.94096111 15.32087336 42.55218599 15.36830902 46.16376114 C15.38302376 47.53423639 15.39103526 48.90480231 15.39188385 50.27535629 C15.40392384 59.98012829 16.36579808 68.3800968 22.25 76.375 C28.61448515 82.45019037 34.35444915 83.5915679 43.0612793 83.47045898 C50.70171518 83.13468453 56.10650754 81.33818254 61.375 75.75 C67.89507602 68.0479219 67.46902131 58.74800288 67.51171875 49.21875 C67.52858938 47.79527257 67.54674279 46.37180982 67.56611633 44.94836426 C67.61336435 41.22652781 67.64333569 37.5047509 67.66955566 33.78271484 C67.69948942 29.97481533 67.74597526 26.16712049 67.79101562 22.359375 C67.87676164 14.90633469 67.94270084 7.45332325 68 0 C72.95 0 77.9 0 83 0 C83.04534209 8.18912957 83.08196833 16.3781601 83.10362434 24.56738186 C83.1140227 28.37073399 83.12810896 32.17399514 83.15087891 35.97729492 C83.17274917 39.65369106 83.18459825 43.33000016 83.18975449 47.00645638 C83.19342496 48.40294831 83.20059186 49.79943596 83.21146011 51.19589043 C83.31042332 64.44923887 82.09245435 76.0276547 72.921875 86.3359375 C62.50011409 96.13822311 50.35419959 98.62160955 36.45703125 98.3125 C26.36288464 97.80301626 17.09970722 93.17039623 10.02734375 86 C2.96613299 77.60450526 -0.13531136 67.52036834 -0.11352539 56.64916992 C-0.11344986 55.3882402 -0.11337433 54.12731049 -0.11329651 52.82817078 C-0.10819069 51.46226969 -0.1029747 50.09636902 -0.09765625 48.73046875 C-0.0957897 47.32513988 -0.09436692 45.91981035 -0.09336853 44.51448059 C-0.089562 40.82705875 -0.07974774 37.1396767 -0.06866455 33.45227051 C-0.05841025 29.68498269 -0.05386232 25.9176884 -0.04882812 22.15039062 C-0.0381237 14.7669069 -0.0205421 7.38346411 0 0 Z " fill="#484848" transform="translate(1747,861)"/>
<path d="M0 0 C0.92103516 -0.01224609 1.84207031 -0.02449219 2.79101562 -0.03710938 C11.01376072 -0.05461699 17.58905849 1.28360512 25 5.0625 C25.98355469 5.55492187 26.96710938 6.04734375 27.98046875 6.5546875 C30.84170458 8.20433795 33.29266259 10.05922782 35.8125 12.1875 C34.03304913 16.23170651 31.41720327 19.64828487 28.8125 23.1875 C25.89545771 22.15795566 23.64839249 21.06918993 21.125 19.25 C12.47475087 13.86399583 2.83963702 12.97175146 -7.1875 14.1875 C-11.80758896 15.95300984 -14.45626826 18.09065239 -17.1875 22.1875 C-17.87237963 26.44012465 -17.70084504 30.08747491 -15.875 34 C-10.4093962 38.44874728 -3.63571512 39.81804488 3.07421875 41.59375 C4.02570801 41.84648682 4.97719727 42.09922363 5.95751953 42.35961914 C7.85765019 42.8581053 9.76090219 43.34488777 11.66748047 43.81811523 C19.66460397 45.88609136 28.4429594 48.52926966 33.8125 55.1875 C34.34875 55.826875 34.885 56.46625 35.4375 57.125 C39.46603213 63.16779819 39.50745591 69.13237795 38.8125 76.1875 C37.12084451 83.33904956 33.78820624 88.86254134 27.8125 93.1875 C15.67878401 100.06744205 1.18056975 101.06324185 -12.375 98.125 C-21.53119326 95.48931545 -30.24771111 90.73072953 -37.1875 84.1875 C-35.82379701 81.19529732 -34.23841917 78.89723471 -32.0625 76.4375 C-31.52367187 75.82390625 -30.98484375 75.2103125 -30.4296875 74.578125 C-29.81480469 73.88976562 -29.81480469 73.88976562 -29.1875 73.1875 C-26.26154755 74.56210853 -23.74322652 76.1734618 -21.125 78.0625 C-10.7497181 84.94561385 0.05340434 87.09816632 12.40625 84.6796875 C16.84789863 83.23780903 19.32044268 81.07510942 21.8125 77.1875 C23.69184042 73.42881916 23.09854066 69.35766635 22.125 65.375 C19.47868966 60.96448277 13.34559454 60.45204805 8.640625 59.19921875 C7.23943828 58.81889339 5.83840124 58.43801619 4.4375 58.05664062 C2.25596207 57.46556309 0.07373415 56.8779713 -2.11132812 56.30004883 C-14.6577666 52.97148894 -24.93982273 49.75290934 -32.3203125 38.453125 C-34.6660808 32.32454117 -34.23402979 23.5840498 -32.3125 17.34765625 C-25.71915869 4.65981195 -13.50359153 0.00925537 0 0 Z " fill="#484848" transform="translate(1688.1875,859.8125)"/>
<path d="M0 0 C1.80859375 1.6875 1.80859375 1.6875 3 3 C1.5140084 7.59306496 -0.85014682 10.43569245 -4 14 C-8.40882595 13.1771546 -11.63601312 10.85288818 -15.3671875 8.47265625 C-23.13962915 4.12516292 -31.35904013 4.1289355 -40 5 C-44.66926091 6.72444295 -47.25665047 8.8849757 -50 13 C-50.6889579 17.27794787 -50.53419103 20.90733652 -48.625 24.8125 C-42.60440551 29.82966207 -35.1686409 31.26393368 -27.6875 32.9375 C-15.68608033 35.64092757 -4.37760371 38.60554725 3.37109375 48.8046875 C7.22233591 55.22786646 7.05117471 62.62736201 5.33984375 69.74609375 C2.38798497 78.14164014 -2.5020742 83.01719605 -10.4375 86.875 C-14.96901706 88.74271987 -19.09626553 89.87263027 -24 90 C-25.1859375 90.061875 -26.371875 90.12375 -27.59375 90.1875 C-43.56188082 90.79508874 -58.09645235 85.93839514 -70 75 C-67.50127818 71.1626772 -64.9156164 67.54039134 -62 64 C-58.56138456 65.25803004 -55.82066258 66.71335407 -52.875 68.875 C-43.48556666 75.18618419 -34.29196697 77.33003145 -23 76 C-18.72699064 74.8253719 -15.38201376 73.16607411 -12 70.3125 C-10.38232811 66.57163375 -9.68783032 63.0794902 -10 59 C-12.94040903 53.43422577 -16.79811482 51.84302712 -22.64453125 49.92578125 C-26.55193425 48.84772012 -30.48308271 47.94861568 -34.4375 47.0625 C-46.55527247 44.3270055 -57.89452507 40.81775849 -65 29.9375 C-67.54141492 22.51389327 -67.18678675 13.58837803 -63.9375 6.5 C-59.49334006 -1.11499316 -52.31440235 -6.31243406 -43.79296875 -8.58984375 C-28.22927257 -10.87542151 -13.26667058 -8.73825301 0 0 Z " fill="#474747" transform="translate(2311,869)"/>
<path d="M0 0 C7.693125 -0.0825 15.38625 -0.165 23.3125 -0.25 C25.71829346 -0.28641602 28.12408691 -0.32283203 30.6027832 -0.36035156 C32.54377352 -0.37205142 34.48477378 -0.38224016 36.42578125 -0.390625 C37.89597717 -0.4213208 37.89597717 -0.4213208 39.39587402 -0.45263672 C48.17984405 -0.4569998 56.40480648 1.25914196 63 7.375 C68.78846903 13.48183483 69.54006695 19.4506347 69.3515625 27.58203125 C68.5155148 35.71027282 64.33020802 40.45392142 58.12875366 45.53239441 C51.28323559 50.25183226 42.98694511 50.42372685 34.9609375 50.29296875 C34.06673096 50.28994751 33.17252441 50.28692627 32.2512207 50.28381348 C28.95902717 50.26829613 25.66700011 50.22641443 22.375 50.1875 C11.299375 50.0946875 11.299375 50.0946875 0 50 C0 33.5 0 17 0 0 Z " fill="#F3F7F8" transform="translate(2046,666)"/>
<path d="M0 0 C7.8375 -0.12375 15.675 -0.2475 23.75 -0.375 C26.19889648 -0.42962402 28.64779297 -0.48424805 31.17089844 -0.54052734 C52.6540281 -0.82172212 52.6540281 -0.82172212 61 6 C67.15194881 12.60141295 68.42818169 17.30946745 68.3359375 26.3125 C67.75941603 32.64082867 65.63433821 37.40352703 61.09765625 41.875 C53.7265786 47.76054377 46.85253674 48.28612897 37.6953125 48.1953125 C36.61619598 48.1924826 35.53707947 48.18965271 34.42526245 48.18673706 C30.99172701 48.1755766 27.55845609 48.1504793 24.125 48.125 C21.79167044 48.11496487 19.45833678 48.10583995 17.125 48.09765625 C11.41648371 48.07735569 5.70853663 48.03819839 0 48 C0 32.16 0 16.32 0 0 Z " fill="#F9FBFB" transform="translate(1085,666)"/>
<path d="M0 0 C5.28 0 10.56 0 16 0 C21.01883823 9.64569982 25.1608673 19.47361629 29.1875 29.5625 C29.8426442 31.19316798 30.49833072 32.82361817 31.15454102 34.45385742 C32.47275282 37.72955209 33.78885575 41.00608146 35.10351562 44.28320312 C37.85572855 51.13680781 40.64601154 57.97482198 43.4375 64.8125 C44.3320709 67.00649425 45.22660658 69.20050286 46.12109375 71.39453125 C46.74734442 72.92970847 47.37362414 74.46487385 48 76 C52.74108609 65.91603593 56.94008644 55.61092124 61.1875 45.3125 C61.9450152 43.47980983 62.70274756 41.6472094 63.46069336 39.81469727 C64.58921531 37.08616724 65.71761574 34.35758791 66.84529114 31.62870789 C69.90445402 24.22609137 72.97863792 16.82986044 76.0625 9.4375 C76.47330811 8.45241455 76.88411621 7.4673291 77.30737305 6.45239258 C78.20457452 4.30145285 79.10222112 2.15069879 80 0 C85.28 0 90.56 0 96 0 C95.30887625 3.45561874 94.74437574 5.94020552 93.44384766 9.07617188 C93.1241803 9.85308884 92.80451294 10.6300058 92.47515869 11.4304657 C91.94991608 12.68691643 91.94991608 12.68691643 91.4140625 13.96875 C91.04488708 14.86169266 90.67571167 15.75463531 90.29534912 16.67463684 C89.07660726 19.61840194 87.85103885 22.5592673 86.625 25.5 C85.77664568 27.54312579 84.92850398 29.58633988 84.08056641 31.62963867 C77.8855279 46.54067905 71.64119259 61.43123825 65.375 76.3125 C64.95841125 77.3034668 64.54182251 78.29443359 64.11260986 79.31542969 C62.93975065 82.10336134 61.76346762 84.88981978 60.5859375 87.67578125 C60.23577576 88.50898392 59.88561401 89.34218658 59.52484131 90.20063782 C57.11500531 95.88499469 57.11500531 95.88499469 56 97 C53.30345146 97.07319621 50.63308542 97.09242537 47.9375 97.0625 C47.17888672 97.05798828 46.42027344 97.05347656 45.63867188 97.04882812 C43.75908129 97.0370068 41.87953101 97.01907078 40 97 C35.48541203 87.44089962 31.34231563 77.76996865 27.3125 68 C26.00718947 64.84422907 24.69951818 61.68944282 23.390625 58.53515625 C23.04693375 57.70669693 22.70324249 56.87823761 22.34913635 56.02467346 C19.53284685 49.25039441 16.67030921 42.4963032 13.796875 35.74609375 C12.91885677 33.68034159 12.04084566 31.61458639 11.1628418 29.54882812 C9.86643018 26.49938992 8.56819059 23.45079494 7.26431274 20.40454102 C6.04782016 17.56203075 4.837789 14.7168469 3.62890625 11.87109375 C3.07689545 10.58917397 3.07689545 10.58917397 2.51373291 9.28135681 C2.18121521 8.4955574 1.84869751 7.709758 1.50610352 6.90014648 C1.21381363 6.21597153 0.92152374 5.53179657 0.62037659 4.82688904 C0 3 0 3 0 0 Z " fill="#484848" transform="translate(1943,861)"/>
<path d="M0 0 C2.69431398 -0.27276519 5.36095545 -0.46858303 8.0625 -0.625 C8.81466797 -0.70878906 9.56683594 -0.79257812 10.34179688 -0.87890625 C12.86773821 -0.98825436 14.61607931 -0.86618864 17 0 C19.96466075 2.95140825 21.91104095 6.3972378 24 10 C25.23630678 11.96040349 26.47595745 13.91870172 27.71875 15.875 C29.61625792 18.93929851 31.50534802 22.00868915 33.39453125 25.078125 C37.39535323 31.53907975 41.5679 37.82647396 46 44 C47.15121866 42.1706961 48.30213542 40.3412018 49.4519043 38.51098633 C50.49997635 36.85334327 51.55639604 35.2009538 52.62036133 33.5534668 C55.85886367 28.51533457 58.89127353 23.42955535 61.76171875 18.171875 C71.28212245 1.26025427 71.28212245 1.26025427 76.37353516 -1.10058594 C81.47994733 -2.12166293 86.03467208 -1.38267176 91 0 C89.02056859 5.25515808 86.20325416 9.66146895 83.1875 14.375 C82.59235596 15.33414307 81.99721191 16.29328613 81.3840332 17.28149414 C78.10771716 22.4817675 74.74490517 27.41535055 70.88061523 32.18812561 C53.74424647 53.37865453 51.11691129 70.02793992 53 97 C48.05 97 43.1 97 38 97 C38.04882324 95.42255005 38.04882324 95.42255005 38.09863281 93.81323242 C39.22648829 66.11732522 39.22648829 66.11732522 26.83251953 42.28027344 C23.27436021 37.85272107 20.35873988 32.97406395 17.3125 28.1875 C16.04838264 26.24686478 14.78153296 24.30800614 13.51171875 22.37109375 C12.91407715 21.4569873 12.31643555 20.54288086 11.70068359 19.60107422 C10.62559307 17.95679997 9.55040986 16.31258632 8.47509766 14.66845703 C7.18827643 12.69785698 5.9058126 10.72450858 4.625 8.75 C3.93664063 7.69296875 3.24828125 6.6359375 2.5390625 5.546875 C1 3 1 3 0 0 Z " fill="#484848" transform="translate(2140,861)"/>
<path d="M0 0 C20.86066928 -0.60465708 39.83024348 6.36095178 55.3125 20.375 C69.77994723 34.03857034 80.01915515 51.70162806 81.234375 71.89453125 C81.24753267 74.93066429 81.13786499 77.96697013 81 81 C74.73 81 68.46 81 62 81 C61.773125 78.628125 61.54625 76.25625 61.3125 73.8125 C59.89342154 61.59418446 55.65513655 51.6434837 48 42 C47.46632813 41.29101562 46.93265625 40.58203125 46.3828125 39.8515625 C35.05305626 25.70291954 17.2123668 20.9124852 0 19 C0 12.73 0 6.46 0 0 Z " fill="#0A6378" transform="translate(799,658)"/>
<path d="M0 0 C5.80980987 4.50989807 9.83001788 10.22057085 11.09765625 17.5703125 C11.63928317 25.10494471 8.87055165 31.15255751 4.7109375 37.328125 C-0.1729459 42.26555976 -6.17591769 44.61129502 -13.0390625 44.765625 C-20.16623885 44.62553308 -24.90507289 42.45740571 -30.10546875 37.6484375 C-35.87559234 31.39167698 -36.82172577 24.93052816 -36.66015625 16.5859375 C-35.98294132 10.64070329 -33.65663211 6.5456704 -29.31640625 2.48046875 C-21.19942257 -3.93725853 -9.17912292 -5.49972766 0 0 Z " fill="#086680" transform="translate(1419.2890625,747.671875)"/>
<path d="M0 0 C5.22930486 5.37063742 8.32819796 12.00993434 8.6875 19.5 C8.59154792 25.97143485 5.91456218 31.50028438 1.59765625 36.26953125 C-4.76405288 41.99089329 -10.6409351 42.96422845 -19.10546875 42.8046875 C-25.80357572 42.00120684 -30.14124167 39.16668082 -34.6328125 34.2421875 C-39.4783269 27.41339279 -39.79583552 20.51251607 -38.6875 12.375 C-36.94358817 5.69000465 -32.289277 1.19054999 -26.6875 -2.625 C-17.33988169 -6.53400402 -8.4691214 -5.1208641 0 0 Z " fill="#1890DD" transform="translate(1421.6875,666.625)"/>
<path d="M0 0 C5.094375 -0.0825 10.18875 -0.165 15.4375 -0.25 C17.82053345 -0.30462402 17.82053345 -0.30462402 20.25170898 -0.36035156 C28.48677324 -0.42478137 36.21975062 -0.42356867 42.60327148 5.48364258 C46.52458807 9.91628623 47.42923713 13.85734024 47.3359375 19.5859375 C46.74520339 23.83098027 44.92426971 26.90782963 42 30 C36.23443945 33.88109718 30.8317005 35.12584368 23.92578125 35.09765625 C22.67450439 35.09515869 21.42322754 35.09266113 20.1340332 35.09008789 C17.74737427 35.07643188 17.74737427 35.07643188 15.3125 35.0625 C10.259375 35.041875 5.20625 35.02125 0 35 C0 23.45 0 11.9 0 0 Z " fill="#F6F6F6" transform="translate(1869,875)"/>
<path d="M0 0 C45.54 0 91.08 0 138 0 C138 11.22 138 22.44 138 34 C137.67 34 137.34 34 137 34 C137 23.11 137 12.22 137 1 C92.12 1 47.24 1 1 1 C1 58.75 1 116.5 1 176 C45.55 176 90.1 176 136 176 C136 165.44 136 154.88 136 144 C133.06681885 144.00523682 130.1336377 144.01047363 127.11157227 144.01586914 C117.44442638 144.0324034 107.77727989 144.04347056 98.11012363 144.05181217 C92.24617836 144.05704146 86.38224751 144.06413994 80.51831055 144.07543945 C74.86438288 144.0862667 69.21046913 144.09227649 63.55653191 144.09487724 C61.3942639 144.09673179 59.23199669 144.10035295 57.06973457 144.10573006 C54.05241343 144.11293833 51.03515057 144.11399103 48.01782227 144.11352539 C46.66268272 144.1189183 46.66268272 144.1189183 45.28016663 144.12442017 C39.11405216 144.11405216 39.11405216 144.11405216 38 143 C37.89889647 140.0546443 37.86030721 137.1332244 37.8671875 134.1875 C37.86623077 133.30344482 37.86527405 132.41938965 37.86428833 131.50854492 C37.86360649 129.63557871 37.86546107 127.76261014 37.86962891 125.88964844 C37.87497711 123.01231612 37.86968407 120.13513992 37.86328125 117.2578125 C37.86394203 115.44270799 37.86522319 113.62760357 37.8671875 111.8125 C37.86516327 110.94584717 37.86313904 110.07919434 37.86105347 109.1862793 C37.88504991 103.11495009 37.88504991 103.11495009 39 102 C41.70838086 101.90485408 44.39118513 101.87445068 47.09985352 101.88647461 C47.94856018 101.88632858 48.79726685 101.88618256 49.67169189 101.8860321 C52.49078891 101.88673152 55.30982071 101.89452522 58.12890625 101.90234375 C60.07803817 101.90420783 62.02717055 101.90563178 63.9763031 101.90663147 C69.11706832 101.91045745 74.25780547 101.92028841 79.39855957 101.93133545 C84.64005148 101.94154785 89.8815479 101.94612872 95.12304688 101.95117188 C105.41537892 101.96191061 115.70768274 101.97950805 126 102 C126 91.77 126 81.54 126 71 C97.62 71 69.24 71 40 71 C40 70.67 40 70.34 40 70 C69.04 70 98.08 70 128 70 C128 81.22 128 92.44 128 104 C98.96 104 69.92 104 40 104 C40 116.87 40 129.74 40 143 C72.34 143 104.68 143 138 143 C138 154.22 138 165.44 138 177 C92.46 177 46.92 177 0 177 C0 118.59 0 60.18 0 0 Z " fill="#4B9BCF" transform="translate(2179,631)"/>
<path d="M0 0 C15.406875 -0.020625 30.81375 -0.04125 46.6875 -0.0625 C53.98041138 -0.07615601 53.98041138 -0.07615601 61.4206543 -0.09008789 C67.36486816 -0.09460449 67.36486816 -0.09460449 70.14900208 -0.09544373 C72.09045135 -0.09697772 74.03189967 -0.10049148 75.9733429 -0.10557556 C78.91673433 -0.1128971 81.86006762 -0.11390592 84.8034668 -0.11352539 C85.66610232 -0.1171235 86.52873785 -0.12072161 87.41751385 -0.12442875 C91.41366967 -0.11751471 95.099806 0.00145067 99 1 C99 1.33 99 1.66 99 2 C66.99 2 34.98 2 2 2 C2 59.42 2 116.84 2 176 C13.88 176 25.76 176 38 176 C38 157.19 38 138.38 38 119 C38.33 119 38.66 119 39 119 C39 138.14 39 157.28 39 177 C26.13 177 13.26 177 0 177 C0 118.59 0 60.18 0 0 Z " fill="#4196CD" transform="translate(2007,631)"/>
<path d="M0 0 C4.39970265 4.0114936 8.42485876 8.58833101 11 14 C10.9582217 17.03787933 10.0300397 17.96889347 7.91015625 20.1640625 C6.97042969 20.97617187 6.03070312 21.78828125 5.0625 22.625 C-0.61169636 27.64318924 -6.019949 32.89330685 -11.375 38.25 C-12.13546631 39.00619629 -12.89593262 39.76239258 -13.67944336 40.54150391 C-17.56699225 44.43803492 -21.27204203 48.36706051 -24.69775391 52.67871094 C-26 54 -26 54 -29 55 C-27.99950327 51.44267828 -26.41878244 49.25561888 -23.9375 46.625 C-12.12059334 33.45969113 -6.05740306 16.33269106 0 0 Z " fill="#0D6279" transform="translate(708,787)"/>
<path d="M0 0 C-3.02056161 1.00685387 -5.13554614 1.15372686 -8.29760742 1.20532227 C-9.37850143 1.22526749 -10.45939545 1.24521271 -11.57304382 1.26576233 C-12.73874405 1.28247482 -13.90444427 1.29918732 -15.10546875 1.31640625 C-16.29981033 1.33718735 -17.49415192 1.35796844 -18.72468567 1.37937927 C-22.54556443 1.44484276 -26.36651276 1.5037451 -30.1875 1.5625 C-32.77539786 1.60568824 -35.36328865 1.64930263 -37.95117188 1.69335938 C-44.30070739 1.80052092 -50.65031234 1.9022934 -57 2 C-57.75853736 5.36821239 -58.11943481 8.46053062 -58.09765625 11.91040039 C-58.09270142 13.3319619 -58.09270142 13.3319619 -58.08764648 14.78224182 C-58.07934814 15.79382858 -58.0710498 16.80541534 -58.0625 17.84765625 C-58.05871338 18.89650497 -58.05492676 19.9453537 -58.05102539 21.02598572 C-58.03882587 24.37153252 -58.02019566 27.71699248 -58 31.0625 C-57.97343516 35.47004979 -57.95342713 39.87755662 -57.9375 44.28515625 C-57.92920166 45.29876724 -57.92090332 46.31237823 -57.91235352 47.35670471 C-57.90739868 48.77353798 -57.90739868 48.77353798 -57.90234375 50.21899414 C-57.89710693 51.04774551 -57.89187012 51.87649689 -57.88647461 52.73036194 C-58 55 -58 55 -59 59 C-72.53 59 -86.06 59 -100 59 C-100 58.67 -100 58.34 -100 58 C-87.13 58 -74.26 58 -61 58 C-61 38.86 -61 19.72 -61 0 C-51.6775 -0.185625 -42.355 -0.37125 -32.75 -0.5625 C-28.34092285 -0.65446655 -28.34092285 -0.65446655 -23.84277344 -0.74829102 C-21.51498195 -0.7922548 -19.1871829 -0.83582047 -16.859375 -0.87890625 C-15.04397217 -0.9189679 -15.04397217 -0.9189679 -13.19189453 -0.95983887 C-12.03512207 -0.98026245 -10.87834961 -1.00068604 -9.68652344 -1.02172852 C-8.18094879 -1.05170677 -8.18094879 -1.05170677 -6.6449585 -1.08229065 C-4.25066049 -1.00779862 -2.28271657 -0.69212187 0 0 Z " fill="#C2E4F5" transform="translate(2107,750)"/>
<path d="M0 0 C0.33 0 0.66 0 1 0 C1 22.11 1 44.22 1 67 C5.95 67 10.9 67 16 67 C16 67.33 16 67.66 16 68 C11.85890746 68.72019001 7.94992159 69.05897807 3.7421875 69.03125 C2.85128418 69.02673828 1.96038086 69.02222656 1.04248047 69.01757812 C0.03145264 69.00887695 0.03145264 69.00887695 -1 69 C-1.02315806 60.44648426 -1.04093279 51.89298159 -1.05181217 43.33944225 C-1.0570334 39.36780376 -1.0641173 35.3961867 -1.07543945 31.42456055 C-1.08629527 27.59258628 -1.09228257 23.76063264 -1.09487724 19.92864418 C-1.09672662 18.46579984 -1.10033792 17.00295665 -1.10573006 15.54012108 C-1.11297622 13.49311243 -1.11398943 11.44618931 -1.11352539 9.39916992 C-1.115746 8.23334885 -1.11796661 7.06752777 -1.12025452 5.86637878 C-1 3 -1 3 0 0 Z " fill="#B8E4F9" transform="translate(560,752)"/>
<path d="M0 0 C0.66 0.33 1.32 0.66 2 1 C-0.52403823 5.85666926 -4.04163809 9.29849175 -7.8984375 13.09375 C-8.57041168 13.76289429 -9.24238586 14.43203857 -9.9347229 15.12145996 C-12.07681479 17.2523995 -14.22575187 19.37628081 -16.375 21.5 C-17.81296107 22.92792125 -19.25046596 24.35630205 -20.6875 25.78515625 C-23.91303077 28.99082567 -27.14223096 32.19271708 -30.37811279 35.38793945 C-31.4205989 36.42410937 -32.45700666 37.46645057 -33.48565674 38.51635742 C-36.802631 41.9013155 -36.802631 41.9013155 -39 43 C-38.13327204 38.35234188 -35.31310013 35.95063738 -32.0234375 32.765625 C-31.4199649 32.16876892 -30.81649231 31.57191284 -30.19473267 30.95697021 C-28.26178974 29.04741783 -26.31901799 27.14827073 -24.375 25.25 C-21.83737222 22.75902213 -19.30405632 20.26372214 -16.7734375 17.765625 C-16.16788025 17.16874878 -15.562323 16.57187256 -14.93841553 15.95690918 C-11.23345622 12.28490279 -7.67115236 8.54338147 -4.31884766 4.54199219 C-2.95198301 2.9438587 -1.5043843 1.46836774 0 0 Z " fill="#1A6376" transform="translate(926,627)"/>
<path d="M0 0 C23.93895639 -0.59052454 46.2490738 1.3023182 69 9 C69 9.33 69 9.66 69 10 C65.4083883 9.56021081 62.04142245 9.01205017 58.5625 8 C55.80753611 7.2266768 53.43662843 6.75324437 50.625 6.4375 C47 6 47 6 46 5 C35.98928475 2.79774741 25.88271847 2.58904942 15.6875 2.375 C14.15688182 2.33669803 12.62628237 2.29763988 11.09570312 2.2578125 C7.39730966 2.16318704 3.69877095 2.07869045 0 2 C0 1.34 0 0.68 0 0 Z " fill="#3D96CF" transform="translate(788,571)"/>
<path d="M0 0 C1.99954746 -0.04254356 4.00041636 -0.04080783 6 0 C6.33 0.33 6.66 0.66 7 1 C16.30825097 3.96184432 26.46915774 3.44836874 36.125 3.625 C37.86199716 3.66325414 39.59897685 3.70230997 41.3359375 3.7421875 C45.55714705 3.83737259 49.778445 3.92169337 54 4 C54 4.33 54 4.66 54 5 C37.37340627 8.78561267 17.2314752 6.98031826 1 2 C0.67 1.34 0.34 0.68 0 0 Z " fill="#3992CD" transform="translate(1491,805)"/>
<path d="M0 0 C0.639375 0.144375 1.27875 0.28875 1.9375 0.4375 C5.32094085 1.05894832 8.68588916 1.40134072 12.109375 1.71875 C14 2 14 2 15 3 C17.44608998 3.15980437 19.86731058 3.25929447 22.31640625 3.31640625 C23.41298805 3.3475779 23.41298805 3.3475779 24.53172302 3.37937927 C26.87521656 3.44495024 29.21882539 3.50379432 31.5625 3.5625 C33.14779855 3.60567808 34.73308529 3.64929213 36.31835938 3.69335938 C40.21212037 3.8006392 44.10599772 3.9018849 48 4 C44.79743771 7.20256229 41.09853276 6.32588374 36.7277832 6.37939453 C35.47698975 6.37794434 34.22619629 6.37649414 32.9375 6.375 C31.67446045 6.37483887 30.4114209 6.37467773 29.11010742 6.37451172 C19.41953093 6.25687006 10.11940458 5.44650601 1 2 C0.67 1.34 0.34 0.68 0 0 Z " fill="#3A93CE" transform="translate(1679,805)"/>
<path d="M0 0 C2.64 0.66 5.28 1.32 8 2 C8 2.66 8 3.32 8 4 C9.32 4 10.64 4 12 4 C12 4.66 12 5.32 12 6 C12.680625 5.938125 13.36125 5.87625 14.0625 5.8125 C17.84522901 6.05395079 20.56311162 7.43229653 24 9 C27.46239428 10.32602334 30.64680448 11.13853166 34.3125 11.5625 C38 12 38 12 39 13 C40.34747084 13.23075082 41.70377565 13.41153063 43.0625 13.5625 C44.361875 13.706875 45.66125 13.85125 47 14 C47 14.66 47 15.32 47 16 C40.05921171 15.53961341 33.75484399 14.33136448 27.125 12.25 C26.2580249 11.98340576 25.3910498 11.71681152 24.49780273 11.44213867 C15.9832151 8.77274758 7.52927147 5.88931224 0 1 C0 0.67 0 0.34 0 0 Z " fill="#3390CE" transform="translate(1478,721)"/>
<path d="M0 0 C4.96622349 -0.02465098 9.93241166 -0.04283649 14.89868164 -0.05493164 C16.58944316 -0.0599719 18.28020029 -0.06680405 19.97094727 -0.07543945 C22.39600707 -0.08751857 24.82100944 -0.09323123 27.24609375 -0.09765625 C28.38672523 -0.10539818 28.38672523 -0.10539818 29.55039978 -0.11329651 C31.3673257 -0.11349238 33.18413127 -0.06197277 35 0 C35.495 0.495 35.495 0.495 36 1 C38.25543624 1.24261665 40.50945523 1.38332133 42.7734375 1.5234375 C45.39073204 2.08363037 46.3173393 2.96995128 48 5 C43.12671064 4.51267106 38.3723135 3.89113404 33.5625 2.96875 C26.60123677 1.793569 19.7928293 1.77558981 12.75 1.875 C10.89955078 1.88853516 10.89955078 1.88853516 9.01171875 1.90234375 C6.00759976 1.92563149 3.00391057 1.95833244 0 2 C0 1.34 0 0.68 0 0 Z " fill="#E9FEFF" transform="translate(1508,627)"/>
<path d="M0 0 C0.33 0 0.66 0 1 0 C1 11.88 1 23.76 1 36 C1.66 36 2.32 36 3 36 C3.1546875 35.1646875 3.1546875 35.1646875 3.3125 34.3125 C4.14178408 31.5230899 5.34299056 29.3860936 7 27 C7.66 27 8.32 27 9 27 C9 26.34 9 25.68 9 25 C9.66 25.33 10.32 25.66 11 26 C9.54474479 28.29367386 8.08596157 30.58496515 6.625 32.875 C6.00625 33.85146484 6.00625 33.85146484 5.375 34.84765625 C3.71997146 37.43697509 2.18002621 39.81997379 0 42 C0 28.14 0 14.28 0 0 Z " fill="#DEFAFE" transform="translate(560,634)"/>
<path d="M0 0 C2.88728339 4.33092508 3.12029542 6.33205352 3.09765625 11.5390625 C3.09443359 12.84101562 3.09121094 14.14296875 3.08789062 15.484375 C3.07953466 16.86458399 3.07106971 18.24479232 3.0625 19.625 C3.05748501 21.01301926 3.0529221 22.40104022 3.04882812 23.7890625 C3.03700976 27.19275132 3.02053434 30.59635439 3 34 C2.34 34 1.68 34 1 34 C0.896875 35.010625 0.79375 36.02125 0.6875 37.0625 C-0.03704767 41.21218208 -1.22269266 44.21356263 -3 48 C-3.66 48 -4.32 48 -5 48 C-4.07454413 45.13192054 -3.14198079 42.32334312 -1.9296875 39.5625 C3.09563693 27.35282286 1.85571733 12.85423709 0 0 Z " fill="#3994D0" transform="translate(1938,701)"/>
<path d="M0 0 C7.47465445 -0.10134735 14.949132 -0.1714435 22.42431641 -0.21972656 C24.96767803 -0.23985272 27.51099333 -0.26715637 30.05419922 -0.30175781 C33.70812404 -0.3502297 37.36143756 -0.37295916 41.015625 -0.390625 C42.72362274 -0.42159271 42.72362274 -0.42159271 44.46612549 -0.45318604 C46.05732208 -0.45363922 46.05732208 -0.45363922 47.68066406 -0.45410156 C48.61332092 -0.46298401 49.54597778 -0.47186646 50.50689697 -0.48101807 C53.72170629 0.13924565 54.92255693 1.54373399 57 4 C55.74968994 3.67854004 54.49937988 3.35708008 53.21118164 3.02587891 C47.67178554 1.80012468 42.27725451 1.65104577 36.62109375 1.5859375 C35.56841812 1.56657135 34.51574249 1.5472052 33.4311676 1.5272522 C30.10002506 1.46792253 26.76884708 1.42125867 23.4375 1.375 C21.16600134 1.33677728 18.89451651 1.29772311 16.62304688 1.2578125 C11.08215487 1.16225985 5.54117816 1.07707879 0 1 C0 0.67 0 0.34 0 0 Z " fill="#4DA1D8" transform="translate(2046,665)"/>
<path d="M0 0 C1.16305664 0.0009668 1.16305664 0.0009668 2.34960938 0.00195312 C8.046813 0.046813 8.046813 0.046813 9.1875 1.1875 C10.858125 1.373125 10.858125 1.373125 12.5625 1.5625 C16.08957504 2.17061639 17.13112388 2.40534407 19.1875 5.1875 C11.5625 4.3125 11.5625 4.3125 8.1875 3.1875 C5.4476918 3.08995709 2.73913348 3.04836861 0 3.0625 C-0.73025391 3.05863281 -1.46050781 3.05476562 -2.21289062 3.05078125 C-7.161202 3.05954708 -11.91370175 3.48846424 -16.8125 4.1875 C-12.19629834 -0.42870166 -6.11076941 -0.09898092 0 0 Z " fill="#2E8DCC" transform="translate(1524.8125,658.8125)"/>
<path d="M0 0 C0.66 0 1.32 0 2 0 C1.72916667 1.35416667 1.45833333 2.70833333 1.1875 4.0625 C1.00574219 4.97902344 0.82398438 5.89554688 0.63671875 6.83984375 C0.19286185 9.04278997 -0.2638725 11.24316401 -0.73046875 13.44140625 C-2.64293338 22.59599583 -3.96242224 31.71062732 -5 41 C-5.33 41 -5.66 41 -6 41 C-6.02684312 38.18743719 -6.04676188 35.37512759 -6.0625 32.5625 C-6.07087891 31.76005859 -6.07925781 30.95761719 -6.08789062 30.13085938 C-6.0965143 28.08704779 -6.0522815 26.04316098 -6 24 C-5.67 23.67 -5.34 23.34 -5 23 C-4.84041899 21.64947186 -4.72271724 20.29390838 -4.625 18.9375 C-4.2273104 14.89646054 -3.23470307 11.60087479 -1.69921875 7.86328125 C-0.73519305 5.29434125 -0.33922264 2.71378108 0 0 Z " fill="#D1F1FC" transform="translate(645,683)"/>
<path d="M0 0 C0.66 0.33 1.32 0.66 2 1 C1.41992188 1.54527344 0.83984375 2.09054687 0.2421875 2.65234375 C-5.00151712 7.71433584 -9.25771138 12.751408 -13 19 C-13.39058594 19.64195312 -13.78117188 20.28390625 -14.18359375 20.9453125 C-15.71267773 23.53299308 -17.02901884 26.07415926 -18.125 28.875 C-19 31 -19 31 -21 32 C-17.37258182 18.98397005 -9.4282521 9.4282521 0 0 Z " fill="#D0F2FD" transform="translate(585,703)"/>
<path d="M0 0 C11.42248278 -0.27088892 22.0832351 -0.47625463 32 6 C32.495 6.99 32.495 6.99 33 8 C32.35933594 7.80664062 31.71867187 7.61328125 31.05859375 7.4140625 C30.19363281 7.15367187 29.32867188 6.89328125 28.4375 6.625 C27.59058594 6.36976563 26.74367188 6.11453125 25.87109375 5.8515625 C24.92363281 5.57054687 23.97617188 5.28953125 23 5 C21.9171875 4.649375 20.834375 4.29875 19.71875 3.9375 C15.45165204 2.86176102 11.44241742 2.55515084 7.0625 2.375 C6.28326172 2.33632813 5.50402344 2.29765625 4.70117188 2.2578125 C2.80112621 2.16455873 0.90059722 2.08124038 -1 2 C-0.67 1.34 -0.34 0.68 0 0 Z " fill="#2E8ECD" transform="translate(1879,661)"/>
<path d="M0 0 C1.32 1.32 2.64 2.64 4 4 C3.29875 4.04253906 2.5975 4.08507812 1.875 4.12890625 C-2.10695933 5.33539665 -4.26958193 7.9541371 -7 10.9375 C-13.11472863 17.57213576 -13.11472863 17.57213576 -18 19 C-12.44964797 12.21623641 -6.23557973 6.14477032 0 0 Z " fill="#1F6678" transform="translate(735,818)"/>
<path d="M0 0 C0.66 0.33 1.32 0.66 2 1 C0.29657414 2.90044131 -1.41247117 4.79528874 -3.125 6.6875 C-3.599375 7.21794922 -4.07375 7.74839844 -4.5625 8.29492188 C-7.01076257 10.99131916 -9.47725718 13.46854716 -12.3046875 15.76953125 C-15.02635116 17.71606913 -15.02635116 17.71606913 -16 20 C-16.66 20 -17.32 20 -18 20 C-18 20.66 -18 21.32 -18 22 C-18.66 21.67 -19.32 21.34 -20 21 C-13.80281523 13.54084305 -6.89583408 6.802507 0 0 Z " fill="#298ECF" transform="translate(697,609)"/>
<path d="M0 0 C0.33 0 0.66 0 1 0 C1.02886338 4.47915328 1.04675187 8.95828291 1.0625 13.4375 C1.07087891 14.71689453 1.07925781 15.99628906 1.08789062 17.31445312 C1.09111328 18.52939453 1.09433594 19.74433594 1.09765625 20.99609375 C1.10289307 22.12200928 1.10812988 23.2479248 1.11352539 24.40795898 C1 27 1 27 0 28 C-0.1546875 29.6396875 -0.1546875 29.6396875 -0.3125 31.3125 C-1.07747278 35.41553579 -2.00980062 36.29628679 -5 39 C-4.72285156 37.94425781 -4.44570312 36.88851562 -4.16015625 35.80078125 C-1.18199458 23.84168619 -0.242638 12.30174667 0 0 Z " fill="#BEE5F7" transform="translate(1980,712)"/>
<path d="M0 0 C0.66 0.33 1.32 0.66 2 1 C-0.47064589 4.70596884 -3.13439846 6.20045648 -7.1875 7.9375 C-9.50706358 9.29724417 -9.83396618 10.59934214 -11 13 C-13.5 15.75 -13.5 15.75 -16 18 C-16.66 18 -17.32 18 -18 18 C-18.66 19.32 -19.32 20.64 -20 22 C-20.66 21.67 -21.32 21.34 -22 21 C-15.1729812 13.19580636 -8.2573507 6.32477926 0 0 Z " fill="#D3F1FD" transform="translate(741,647)"/>
<path d="M0 0 C1.07931176 3.23793529 1.20103695 3.93005976 0 7 C-1.9609375 9.54296875 -1.9609375 9.54296875 -4.375 12.1875 C-5.16648437 13.06792969 -5.95796875 13.94835937 -6.7734375 14.85546875 C-9 17 -9 17 -12 18 C-10.682426 13.31529246 -7.88085029 10.45018532 -4.6875 6.9375 C-2.80468014 4.77574386 -1.34419415 2.53024781 0 0 Z " fill="#1A5F71" transform="translate(691,824)"/>
<path d="M0 0 C1.81293089 0.14037521 3.6253443 0.28744889 5.4375 0.4375 C6.95150391 0.55931641 6.95150391 0.55931641 8.49609375 0.68359375 C11 1 11 1 12 2 C13.155 2.165 14.31 2.33 15.5 2.5 C19 3 19 3 20 4 C21.34747084 4.23075082 22.70377565 4.41153063 24.0625 4.5625 C25.361875 4.706875 26.66125 4.85125 28 5 C28 5.66 28 6.32 28 7 C18.25782625 6.5286045 9.29939832 3.74524722 0 1 C0 0.67 0 0.34 0 0 Z " fill="#D1F0FB" transform="translate(1510,696)"/>
<path d="M0 0 C-21.89451153 7.19744294 -21.89451153 7.19744294 -32 7 C-28.54941314 4.69960876 -26.05904498 4.5261725 -22 4 C-21.67 3.67 -21.34 3.34 -21 3 C-19.06705293 2.76671328 -17.13385703 2.5352253 -15.19921875 2.31640625 C-9.96755554 1.56371581 -5.05662717 -1.68554239 0 0 Z " fill="#338FCC" transform="translate(609,870)"/>
<path d="M0 0 C-7.24441195 3.0819153 -13.76273185 3.37085802 -21.5625 3.1875 C-22.66658203 3.17396484 -23.77066406 3.16042969 -24.90820312 3.14648438 C-27.60599272 3.11144815 -30.30272636 3.06232591 -33 3 C-33 2.67 -33 2.34 -33 2 C-32.3702124 1.94465088 -31.7404248 1.88930176 -31.09155273 1.83227539 C-28.20669312 1.57762764 -25.32209868 1.32008608 -22.4375 1.0625 C-21.44685547 0.97548828 -20.45621094 0.88847656 -19.43554688 0.79882812 C-13.21602523 0.24106866 -13.21602523 0.24106866 -7.03515625 -0.62890625 C-4.17956086 -0.97804597 -2.68984792 -0.77738963 0 0 Z " fill="#D2F3FC" transform="translate(593,876)"/>
<path d="M0 0 C-1.60710067 4.00348746 -4.41795967 6.7152015 -7.4375 9.6875 C-7.92798828 10.18572266 -8.41847656 10.68394531 -8.92382812 11.19726562 C-11.26685893 13.52764849 -12.82183707 14.94061236 -16 16 C-14.33536962 11.71357676 -11.20924163 8.91382783 -8 5.75 C-7.4534375 5.19570313 -6.906875 4.64140625 -6.34375 4.0703125 C-2.2533867 0 -2.2533867 0 0 0 Z " fill="#288ED0" transform="translate(1652,649)"/>
<path d="M0 0 C22.59489033 -0.41277905 22.59489033 -0.41277905 33 2 C33 2.33 33 2.66 33 3 C30.85423363 3.02685938 28.70837355 3.04633088 26.5625 3.0625 C25.36753906 3.07410156 24.17257812 3.08570313 22.94140625 3.09765625 C20 3 20 3 19 2 C17.58672053 1.84379445 16.1664541 1.74943827 14.74609375 1.68359375 C13.89208984 1.64169922 13.03808594 1.59980469 12.15820312 1.55664062 C11.26037109 1.51732422 10.36253906 1.47800781 9.4375 1.4375 C8.53580078 1.39431641 7.63410156 1.35113281 6.70507812 1.30664062 C4.47021515 1.20021858 2.23523692 1.09820012 0 1 C0 0.67 0 0.34 0 0 Z " fill="#4AA0D8" transform="translate(1514,628)"/>
<path d="M0 0 C0.99 0.33 1.98 0.66 3 1 C-1.29 5.29 -5.58 9.58 -10 14 C-10.99 13.67 -11.98 13.34 -13 13 C-8.71 8.71 -4.42 4.42 0 0 Z " fill="#266C7E" transform="translate(714,839)"/>
<path d="M0 0 C1.02493529 2.66858151 1.06737786 3.80702744 0.109375 6.55078125 C-0.33921875 7.46214844 -0.7878125 8.37351562 -1.25 9.3125 C-1.71535156 10.27542969 -2.18070313 11.23835937 -2.66015625 12.23046875 C-3.32337891 13.60138672 -3.32337891 13.60138672 -4 15 C-4.57189739 16.37111802 -5.13625151 17.74545067 -5.6875 19.125 C-7 22 -7 22 -9 23 C-6.91147495 14.88406495 -3.64670147 7.52943541 0 0 Z " fill="#3593CF" transform="translate(656,662)"/>
<path d="M0 0 C0.33 0 0.66 0 1 0 C1.05878077 3.64576392 1.0938558 7.29140352 1.125 10.9375 C1.14175781 11.95908203 1.15851563 12.98066406 1.17578125 14.03320312 C1.21618815 20.35688352 0.62010013 25.88316527 -1 32 C-1.33 32 -1.66 32 -2 32 C-2.02688151 30.35425434 -2.04634123 28.70838587 -2.0625 27.0625 C-2.07410156 26.14597656 -2.08570313 25.22945312 -2.09765625 24.28515625 C-2 22 -2 22 -1 21 C-0.84313751 19.44051458 -0.74923361 17.87457332 -0.68359375 16.30859375 C-0.62075195 14.89223633 -0.62075195 14.89223633 -0.55664062 13.44726562 C-0.51732422 12.45404297 -0.47800781 11.46082031 -0.4375 10.4375 C-0.37272461 8.94186523 -0.37272461 8.94186523 -0.30664062 7.41601562 C-0.20019702 4.9441585 -0.09818072 2.4721969 0 0 Z " fill="#2888C8" transform="translate(1979,710)"/>
<path d="M0 0 C0.5625 1.9375 0.5625 1.9375 1 4 C0.67 4.33 0.34 4.66 0 5 C-0.23701239 7.85877909 -0.42219182 10.69883297 -0.5625 13.5625 C-0.60568359 14.36880859 -0.64886719 15.17511719 -0.69335938 16.00585938 C-0.79975262 18.00368805 -0.90040888 20.0018207 -1 22 C-3.83453939 19.16546061 -3.29999688 17.20098712 -3.3125 13.25 C-3.32925781 12.03828125 -3.34601563 10.8265625 -3.36328125 9.578125 C-2.97404161 5.74432384 -1.92298868 3.3081494 0 0 Z " fill="#3893CD" transform="translate(1386,673)"/>
<path d="M0 0 C0.66 0 1.32 0 2 0 C2.042721 1.66611905 2.04063832 3.33382885 2 5 C1.67 5.33 1.34 5.66 1 6 C0.81482115 7.72539663 0.67700022 9.45597627 0.5625 11.1875 C0.22172841 15.40867061 -0.39620542 19.04397336 -2 23 C-2.33 23 -2.66 23 -3 23 C-3.48350422 15.10276444 -1.67664721 7.66467297 0 0 Z " fill="#D4F2FC" transform="translate(699,708)"/>
<path d="M0 0 C0.99 0.2165625 0.99 0.2165625 2 0.4375 C4.42784131 0.89272025 6.79923963 1.22230593 9.25 1.5 C13 2 13 2 14 3 C15.34747084 3.23075082 16.70377565 3.41153063 18.0625 3.5625 C19.361875 3.706875 20.66125 3.85125 22 4 C22 4.66 22 5.32 22 6 C14.82129753 5.54841134 7.76156997 4.56473344 1 2 C0.67 1.34 0.34 0.68 0 0 Z " fill="#3F97D2" transform="translate(1503,731)"/>
<path d="M0 0 C0.33 0 0.66 0 1 0 C1.31368837 5.96007907 0.63699236 9.52316971 -2 15 C-2.350625 16.11375 -2.70125 17.2275 -3.0625 18.375 C-4 21 -4 21 -6 22 C-4.20645194 14.59684417 -2.26858827 7.27235389 0 0 Z " fill="#CEF0FB" transform="translate(692,770)"/>
<path d="M0 0 C0.33 0.99 0.66 1.98 1 3 C-0.38607623 4.46761013 -1.78431195 5.92374189 -3.1875 7.375 C-3.96480469 8.18710937 -4.74210937 8.99921875 -5.54296875 9.8359375 C-7.987055 11.98859852 -9.92616557 13.00632706 -13 14 C-8.88380164 9.08064098 -4.59589638 4.47352044 0 0 Z " fill="#D2F0FC" transform="translate(1960,777)"/>
<path d="M0 0 C-6.83085645 2.44166784 -12.7515055 3.41640288 -20 3 C-20.33 2.34 -20.66 1.68 -21 1 C-18.25091555 0.63685675 -15.50116549 0.28419159 -12.75 -0.0625 C-11.97269531 -0.16626953 -11.19539062 -0.27003906 -10.39453125 -0.37695312 C-9.64042969 -0.47041016 -8.88632812 -0.56386719 -8.109375 -0.66015625 C-7.41811523 -0.74918213 -6.72685547 -0.83820801 -6.01464844 -0.92993164 C-3.82569152 -1.00606235 -2.08994187 -0.6249336 0 0 Z " fill="#3190CE" transform="translate(580,820)"/>
<path d="M0 0 C0 0.66 0 1.32 0 2 C-6.89999866 6.19411683 -13.00088158 6.75612444 -21 7 C-17.58743254 5.1256095 -14.10074641 4.04344956 -10.375 2.9375 C-0.50943396 0 -0.50943396 0 0 0 Z " fill="#CFF1FC" transform="translate(1927,803)"/>
<path d="M0 0 C1.98 0.99 1.98 0.99 4 2 C4 2.66 4 3.32 4 4 C4.66 4 5.32 4 6 4 C6 4.66 6 5.32 6 6 C6.556875 6.20625 7.11375 6.4125 7.6875 6.625 C10.92501302 8.55000774 12.68231141 11.03850902 15 14 C11.36463485 12.43230174 8.74479612 10.20026712 5.8125 7.5625 C4.93207031 6.78003906 4.05164062 5.99757813 3.14453125 5.19140625 C1 3 1 3 0 0 Z " fill="#3793CF" transform="translate(1640,779)"/>
<path d="M0 0 C4.23751854 1.51339948 5.80187236 4.18991209 8 8 C9.73258037 12.15819288 10.21395545 15.5069356 10 20 C6.66666667 13.33333333 3.33333333 6.66666667 0 0 Z " fill="#DDF8FE" transform="translate(1587,726)"/>
<path d="M0 0 C1.61507824 4.85622166 -0.07535347 8.45154963 -2 13 C-3.18351435 15.29685986 -4.34185422 16.97913484 -6 19 C-6.99 19 -7.98 19 -9 19 C-8.60167969 18.38253906 -8.20335938 17.76507812 -7.79296875 17.12890625 C-4.31839322 11.57465778 -1.74030922 6.32007034 0 0 Z " fill="#CBEEFB" transform="translate(2153,707)"/>
<path d="M0 0 C0.99 0.33 1.98 0.66 3 1 C-0.63 4.63 -4.26 8.26 -8 12 C-8.33 11.01 -8.66 10.02 -9 9 C-7.68 8.34 -6.36 7.68 -5 7 C-5 6.01 -5 5.02 -5 4 C-2.6875 1.75 -2.6875 1.75 0 0 Z " fill="#CEEEFC" transform="translate(690,613)"/>
<path d="M0 0 C1.54248331 3.08496663 0.2507412 5.1479722 -0.75 8.375 C-1.09546875 9.51710938 -1.4409375 10.65921875 -1.796875 11.8359375 C-2.89461765 14.7228581 -4.00617217 16.67386753 -6 19 C-5.28536492 12.13950322 -3.29194004 6.07742777 0 0 Z " fill="#D0F1FC" transform="translate(636,757)"/>
<path d="M0 0 C0.66 0 1.32 0 2 0 C-0.05764921 6.45353615 -2.42383482 12.7361263 -5 19 C-5.33 19 -5.66 19 -6 19 C-6.33549966 14.19117153 -5.57164869 12.0003424 -3 8 C-1.90503649 5.36123659 -0.95854618 2.69305833 0 0 Z " fill="#D8F5FD" transform="translate(653,664)"/>
<path d="M0 0 C0.33 0 0.66 0 1 0 C2.70159453 16.8929385 2.70159453 16.8929385 -1 24 C-2.29749772 21.40500456 -1.94158888 19.87273325 -1.66015625 16.9921875 C-1.56669922 16.00605469 -1.47324219 15.01992188 -1.37695312 14.00390625 C-1.27318359 12.97136719 -1.16941406 11.93882812 -1.0625 10.875 C-0.96259766 9.83472656 -0.86269531 8.79445313 -0.75976562 7.72265625 C-0.51173704 5.14788337 -0.25826144 2.57376332 0 0 Z " fill="#C3E3EA" transform="translate(1193,685)"/>
<path d="M0 0 C0.33 0.99 0.66 1.98 1 3 C0.0479279 4.00596297 -0.91187346 5.00461563 -1.875 6 C-2.40867187 6.556875 -2.94234375 7.11375 -3.4921875 7.6875 C-5 9 -5 9 -7 9 C-7.66 10.32 -8.32 11.64 -9 13 C-9.66 12.67 -10.32 12.34 -11 12 C-7.37 8.04 -3.74 4.08 0 0 Z " fill="#3291CF" transform="translate(1822,653)"/>
<path d="M0 0 C4.6444203 -0.07372096 9.24354846 -0.06775054 13.875 0.3125 C14.95394531 0.39951172 14.95394531 0.39951172 16.0546875 0.48828125 C18.4369467 1.11493979 19.42283517 2.15005508 21 4 C13.94110263 3.29411026 6.98795036 2.21786614 0 1 C0 0.67 0 0.34 0 0 Z " fill="#CCEFFC" transform="translate(1535,628)"/>
<path d="M0 0 C6.30399313 -0.45028522 10.71378634 0.38797371 16 4 C16.33 4.66 16.66 5.32 17 6 C16.35933594 5.80664062 15.71867187 5.61328125 15.05859375 5.4140625 C10.04889015 3.9059252 5.03460143 2.42282214 0 1 C0 0.67 0 0.34 0 0 Z " fill="#3492CF" transform="translate(1719,663)"/>
<path d="M0 0 C0.99 0.33 1.98 0.66 3 1 C-0.3 3.97 -3.6 6.94 -7 10 C-7.33 9.01 -7.66 8.02 -8 7 C-6.74057614 5.80040625 -5.46704714 4.61560557 -4.1875 3.4375 C-3.12595703 2.44556641 -3.12595703 2.44556641 -2.04296875 1.43359375 C-1.36878906 0.96050781 -0.69460938 0.48742187 0 0 Z " fill="#DDF7FE" transform="translate(1475,641)"/>
<path d="M0 0 C-1 2 -1 2 -4.125 3.125 C-7.90058738 3.97755199 -11.14638912 4.15729024 -15 4 C-10.09731431 0.73154287 -5.86826297 -0.27944109 0 0 Z " fill="#3692D0" transform="translate(1867,631)"/>
<path d="M0 0 C0.66 0.99 1.32 1.98 2 3 C-0.31 4.98 -2.62 6.96 -5 9 C-5 4.61031544 -2.87194899 3.23094261 0 0 Z " fill="#3C707C" transform="translate(685,833)"/>
<path d="M0 0 C5.29158974 1.40071493 7.77478044 4.85487245 11 9 C8.50638429 7.79618552 6.31856917 6.54571278 4 5 C4 4.34 4 3.68 4 3 C2.35 3 0.7 3 -1 3 C-0.67 2.01 -0.34 1.02 0 0 Z " fill="#3891CD" transform="translate(1752,756)"/>
<path d="M0 0 C2 2 2 2 2.3125 4.0625 C1.86538932 8.2653404 0.4473583 12.04561036 -1 16 C-2.26823485 12.34606463 -1.75715321 9.50929974 -1.0625 5.75 C-0.86785156 4.67234375 -0.67320312 3.5946875 -0.47265625 2.484375 C-0.31667969 1.66453125 -0.16070313 0.8446875 0 0 Z " fill="#C5EAF9" transform="translate(695,751)"/>
<path d="M0 0 C1 3 1 3 -0.21484375 5.69921875 C-0.78332031 6.68535156 -1.35179687 7.67148437 -1.9375 8.6875 C-2.50339844 9.68136719 -3.06929687 10.67523437 -3.65234375 11.69921875 C-4.31943359 12.83810547 -4.31943359 12.83810547 -5 14 C-5.66 14 -6.32 14 -7 14 C-5.53967505 8.68972746 -3.01679014 4.53669968 0 0 Z " fill="#D8F6FE" transform="translate(1668,684)"/>
<path d="M0 0 C4.29 0.33 8.58 0.66 13 1 C13 1.66 13 2.32 13 3 C13.66 3.33 14.32 3.66 15 4 C9.76119922 3.44854729 5.02649303 2.57077907 0 1 C0 0.67 0 0.34 0 0 Z " fill="#C7EAF9" transform="translate(1503,774)"/>
<path d="M0 0 C2.64525803 0.95523207 4.81123085 1.85699307 7.0625 3.5625 C9.07687729 5.05703799 10.55493989 5.56338212 13 6 C12.67 6.99 12.34 7.98 12 9 C10.18381144 7.88096454 8.37214474 6.75458716 6.5625 5.625 C5.55316406 4.99851562 4.54382812 4.37203125 3.50390625 3.7265625 C1 2 1 2 0 0 Z " fill="#3992CC" transform="translate(1561,671)"/>
<path d="M0 0 C1.32 1.32 2.64 2.64 4 4 C0.25 7 0.25 7 -2 7 C-1.34 4.69 -0.68 2.38 0 0 Z " fill="#26697A" transform="translate(708,787)"/>
<path d="M0 0 C0.71484375 1.734375 0.71484375 1.734375 1 4 C-0.43359375 6.140625 -0.43359375 6.140625 -2.4375 8.25 C-3.09621094 8.95640625 -3.75492188 9.6628125 -4.43359375 10.390625 C-5.20896484 11.18726563 -5.20896484 11.18726563 -6 12 C-6.66 11.67 -7.32 11.34 -8 11 C-7.50628906 10.37351562 -7.01257812 9.74703125 -6.50390625 9.1015625 C-5.54291016 7.87566406 -5.54291016 7.87566406 -4.5625 6.625 C-3.92441406 5.81289063 -3.28632812 5.00078125 -2.62890625 4.1640625 C-0.97776453 2.10601894 -0.97776453 2.10601894 0 0 Z " fill="#3591CD" transform="translate(1932,749)"/>
<path d="M0 0 C1.77174819 0.08723378 3.54247377 0.19541655 5.3125 0.3125 C6.29863281 0.37050781 7.28476563 0.42851563 8.30078125 0.48828125 C11.24384457 1.04622813 12.18182999 1.68540132 14 4 C9.03083364 3.48594831 4.70973649 2.76615118 0 1 C0 0.67 0 0.34 0 0 Z " fill="#C4EAF9" transform="translate(1510,696)"/>
<path d="M0 0 C1.98 0.99 1.98 0.99 4 2 C4 2.66 4 3.32 4 4 C4.66 4 5.32 4 6 4 C6 4.66 6 5.32 6 6 C6.66 6 7.32 6 8 6 C7.67 6.99 7.34 7.98 7 9 C5.82737096 7.88121617 4.66204862 6.75476949 3.5 5.625 C2.8503125 4.99851562 2.200625 4.37203125 1.53125 3.7265625 C0 2 0 2 0 0 Z " fill="#3994D1" transform="translate(1816,779)"/>
<path d="M0 0 C0.33 0 0.66 0 1 0 C1.31563182 5.26053037 0.66590937 8.44573816 -2 13 C-3.18771723 9.57056481 -2.80226223 7.62215325 -1.5625 4.25 C-1.27503906 3.45078125 -0.98757813 2.6515625 -0.69140625 1.828125 C-0.46324219 1.22484375 -0.23507812 0.6215625 0 0 Z " fill="#C1E9F9" transform="translate(630,674)"/>
<path d="M0 0 C0.33 0.99 0.66 1.98 1 3 C-0.21484375 4.82421875 -0.21484375 4.82421875 -1.9375 6.6875 C-2.50339844 7.31011719 -3.06929687 7.93273437 -3.65234375 8.57421875 C-4.09707031 9.04472656 -4.54179688 9.51523437 -5 10 C-5.66 9.67 -6.32 9.34 -7 9 C-4.69 6.03 -2.38 3.06 0 0 Z " fill="#DCF8FE" transform="translate(1582,667)"/>
<path d="M0 0 C0.33 0.66 0.66 1.32 1 2 C-0.65 3.98 -2.3 5.96 -4 8 C-5.32 7.67 -6.64 7.34 -8 7 C-5.36 4.69 -2.72 2.38 0 0 Z " fill="#DFF8FE" transform="translate(877,645)"/>
<path d="M0 0 C0.66 0.33 1.32 0.66 2 1 C0.93106782 2.03590338 -0.15578488 3.05333942 -1.25 4.0625 C-2.15492188 4.91521484 -2.15492188 4.91521484 -3.078125 5.78515625 C-4.02945313 6.38650391 -4.02945313 6.38650391 -5 7 C-6.32 6.67 -7.64 6.34 -9 6 C-6.03 4.02 -3.06 2.04 0 0 Z " fill="#D5F3FC" transform="translate(637,854)"/>
<path d="M0 0 C3.8063457 0.67170806 7.35206816 1.72746564 11 3 C11 3.33 11 3.66 11 4 C3.49230769 3.38461538 3.49230769 3.38461538 1 1.4375 C0.67 0.963125 0.34 0.48875 0 0 Z " fill="#3892CE" transform="translate(1850,803)"/>
<path d="M0 0 C0.66 0 1.32 0 2 0 C1.34 3.63 0.68 7.26 0 11 C-0.33 11 -0.66 11 -1 11 C-1.02688151 9.35425434 -1.04634123 7.70838587 -1.0625 6.0625 C-1.07410156 5.14597656 -1.08570313 4.22945312 -1.09765625 3.28515625 C-1 1 -1 1 0 0 Z " fill="#3190CF" transform="translate(1978,731)"/>
<path d="M0 0 C0.66 0.33 1.32 0.66 2 1 C-4.14285714 6.57142857 -4.14285714 6.57142857 -9 7 C-6.25604436 4.05278838 -3.61662784 1.80831392 0 0 Z " fill="#D2F2FC" transform="translate(597,695)"/>
<path d="M0 0 C5.859375 -0.390625 5.859375 -0.390625 8 0 C9.32 1.32 10.64 2.64 12 4 C6.06 2.515 6.06 2.515 0 1 C0 0.67 0 0.34 0 0 Z " fill="#3B96D0" transform="translate(2091,665)"/>
<path d="M0 0 C0.99 0.33 1.98 0.66 3 1 C0.69 3.31 -1.62 5.62 -4 8 C-4.33 7.01 -4.66 6.02 -5 5 C-4.34 5 -3.68 5 -3 5 C-2.5359375 4.0409375 -2.5359375 4.0409375 -2.0625 3.0625 C-1 1 -1 1 0 0 Z " fill="#D0F0FC" transform="translate(1642,654)"/>
<path d="M0 0 C0.66 0 1.32 0 2 0 C2.33 0.99 2.66 1.98 3 3 C1.78515625 4.82421875 1.78515625 4.82421875 0.0625 6.6875 C-0.50339844 7.31011719 -1.06929687 7.93273437 -1.65234375 8.57421875 C-2.09707031 9.04472656 -2.54179688 9.51523437 -3 10 C-3.66 9.67 -4.32 9.34 -5 9 C-3.69791667 7.53515625 -2.39583333 6.0703125 -1.09375 4.60546875 C0.28151241 2.910552 0.28151241 2.910552 0 0 Z " fill="#DEF7FE" transform="translate(1592,651)"/>
<path d="M0 0 C4.26086957 6.39130435 4.26086957 6.39130435 3.625 10.3125 C3.41875 10.869375 3.2125 11.42625 3 12 C0.97649676 8.96474514 0.67875982 7.80573798 0.375 4.3125 C0.30023437 3.50425781 0.22546875 2.69601562 0.1484375 1.86328125 C0.09945312 1.24839844 0.05046875 0.63351562 0 0 Z " fill="#4197D1" transform="translate(2150,666)"/>
<path d="M0 0 C-1.24313463 3.72940389 -2.76985216 4.84656811 -6 7 C-6.99 6.67 -7.98 6.34 -9 6 C-7.8803014 4.99406757 -6.7540588 3.9954151 -5.625 3 C-4.68527344 2.1646875 -4.68527344 2.1646875 -3.7265625 1.3125 C-2 0 -2 0 0 0 Z " fill="#3592CF" transform="translate(587,646)"/>
<path d="M0 0 C7.50769231 -0.36923077 7.50769231 -0.36923077 10 1.5 C10.495 2.2425 10.495 2.2425 11 3 C9.741875 2.87625 8.48375 2.7525 7.1875 2.625 C6.12595703 2.52058594 6.12595703 2.52058594 5.04296875 2.4140625 C3 2 3 2 0 0 Z " fill="#4198D3" transform="translate(1533,661)"/>
<path d="M0 0 C0 3 0 3 -2 5.1875 C-2.66 5.785625 -3.32 6.38375 -4 7 C-4.66 6.67 -5.32 6.34 -6 6 C-2.25 1.125 -2.25 1.125 0 0 Z " fill="#ECEDEC" transform="translate(2267,875)"/>
<path d="M0 0 C0.33 1.32 0.66 2.64 1 4 C-0.9375 6.75 -0.9375 6.75 -3 9 C-3.66 8.67 -4.32 8.34 -5 8 C-3.35 5.36 -1.7 2.72 0 0 Z " fill="#D8F4FD" transform="translate(678,808)"/>
<path d="M0 0 C4.21912747 0.4794463 6.79663178 1.16625119 10 4 C5.74357648 4.3648363 3.46444495 3.47460354 0 1 C0 0.67 0 0.34 0 0 Z " fill="#D9F6FD" transform="translate(2095,667)"/>
</svg>
